0
SECTION
2
HEADER
9
$INSUNITS
70
4
9
$ACADVER
1
AC1014
9
$HANDSEED
5
FFFF
0
ENDSEC
0
SECTION
2
TABLES
0
TABLE
2
VPORT
5
8
100
AcDbSymbolTable
0
ENDTAB
0
TABLE
2
LTYPE
5
5
100
AcDbSymbolTable
0
LTYPE
5
14
100
AcDbSymbolTableRecord
100
AcDbLinetypeTableRecord
2
BYBLOCK
70
0
0
LTYPE
5
15
100
AcDbSymbolTableRecord
100
AcDbLinetypeTableRecord
2
BYLAYER
70
0
0
ENDTAB
0
TABLE
2
LAYER
5
2
100
AcDbSymbolTable
70
2
0
LAYER
5
50
100
AcDbSymbolTableRecord
100
AcDbLayerTableRecord
2
0
70
0
6
CONTINUOUS
0
ENDTAB
0
TABLE
2
STYLE
5
3
100
AcDbSymbolTable
70
1
0
STYLE
5
11
100
AcDbSymbolTableRecord
100
AcDbTextStyleTableRecord
2
STANDARD
70
0
0
ENDTAB
0
TABLE
2
VIEW
5
6
100
AcDbSymbolTable
70
0
0
ENDTAB
0
TABLE
2
UCS
5
7
100
AcDbSymbolTable
70
0
0
ENDTAB
0
TABLE
2
APPID
5
9
100
AcDbSymbolTable
70
2
0
APPID
5
12
100
AcDbSymbolTableRecord
100
AcDbRegAppTableRecord
2
ACAD
70
0
0
ENDTAB
0
TABLE
2
DIMSTYLE
5
A
100
AcDbSymbolTable
70
1
0
ENDTAB
0
TABLE
2
BLOCK_RECORD
5
1
100
AcDbSymbolTable
70
1
0
BLOCK_RECORD
5
1F
100
AcDbSymbolTableRecord
100
AcDbBlockTableRecord
2
*MODEL_SPACE
0
BLOCK_RECORD
5
1B
100
AcDbSymbolTableRecord
100
AcDbBlockTableRecord
2
*PAPER_SPACE
0
ENDTAB
0
ENDSEC
0
SECTION
2
BLOCKS
0
BLOCK
5
20
100
AcDbEntity
100
AcDbBlockBegin
2
*MODEL_SPACE
0
ENDBLK
5
21
100
AcDbEntity
100
AcDbBlockEnd
0
BLOCK
5
1C
100
AcDbEntity
100
AcDbBlockBegin
2
*PAPER_SPACE
0
ENDBLK
5
1D
100
AcDbEntity
100
AcDbBlockEnd
0
ENDSEC
0
SECTION
2
ENTITIES
0
CIRCLE
5
100
100
AcDbEntity
8
0
100
AcDbCircle
10
0
20
0
30
0
40
19.27670101512409
210
0
220
0
230
1
0
LWPOLYLINE
5
101
100
AcDbEntity
8
0
100
AcDbPolyline
90
2
70
1
43
0.0
10
-9.3746844833681759
20
16.843589073109747
10
-9.3746844833681759
20
40
0
LINE
5
102
100
AcDbEntity
8
0
100
AcDbLine
10
10
20
40
30
0
11
10
21
16.480024333309888
31
0
0
LINE
5
103
100
AcDbEntity
8
0
100
AcDbLine
10
10
20
40
30
0
11
20
21
60
31
0
0
LINE
5
104
100
AcDbEntity
8
0
100
AcDbLine
10
-9.3746844833681759
20
40
30
0
11
-20
21
60
31
0
0
LINE
5
105
100
AcDbEntity
8
0
100
AcDbLine
10
20
20
60
30
0
11
20
21
100
31
0
0
LINE
5
106
100
AcDbEntity
8
0
100
AcDbLine
10
-20
20
60
30
0
11
-20
21
100
31
0
0
LINE
5
107
100
AcDbEntity
8
0
100
AcDbLine
10
-20
20
100
30
0
11
-20
21
120
31
0
0
LINE
5
108
100
AcDbEntity
8
0
100
AcDbLine
10
20
20
100
30
0
11
20
21
120
31
0
0
ARC
5
109
100
AcDbEntity
8
0
100
AcDbCircle
10
30
20
120
30
0
40
10
210
0
220
-0
230
1
100
AcDbArc
50
90
51
180
0
LINE
5
110
100
AcDbEntity
8
0
100
AcDbLine
10
30
20
130
30
0
11
70.262806730571498
21
130
31
0
0
LINE
5
111
100
AcDbEntity
8
0
100
AcDbLine
10
70.262806730571498
20
130
30
0
11
100.05055655302557
21
150
31
0
0
LINE
5
112
100
AcDbEntity
8
0
100
AcDbLine
10
100.05055655302557
20
150
30
0
11
30
21
150
31
0
0
LINE
5
113
100
AcDbEntity
8
0
100
AcDbLine
10
-20
20
120
30
0
11
-40
21
130
31
0
0
LINE
5
114
100
AcDbEntity
8
0
100
AcDbLine
10
-40
20
130
30
0
11
-36.147417728673247
21
128.07370886433662
31
0
0
LWPOLYLINE
5
115
100
AcDbEntity
8
0
100
AcDbPolyline
90
3
70
1
43
0.0
10
-40
20
130
10
-70
20
130
10
-70
20
110
0
LINE
5
116
100
AcDbEntity
8
0
100
AcDbLine
10
-80
20
80
30
0
11
-70
21
110
31
0
0
LINE
5
117
100
AcDbEntity
8
0
100
AcDbLine
10
-80
20
80
30
0
11
-100
21
90
31
0
0
LINE
5
118
100
AcDbEntity
8
0
100
AcDbLine
10
-100
20
90
30
0
11
-90
21
114.86098012923492
31
0
0
LINE
5
119
100
AcDbEntity
8
0
100
AcDbLine
10
-90
20
114.86098012923492
30
0
11
-119.97142113860565
21
107.43756856280575
31
0
0
LINE
5
120
100
AcDbEntity
8
0
100
AcDbLine
10
-119.97142113860565
20
107.43756856280575
30
0
11
-119.97142113860565
21
150
31
0
0
LINE
5
121
100
AcDbEntity
8
0
100
AcDbLine
10
-119.97142113860565
20
150
30
0
11
-38.724896707786414
21
149.99999999999997
31
0
0
ARC
5
122
100
AcDbEntity
8
0
100
AcDbCircle
10
-38.724896707786407
20
168.72489670778634
30
0
40
18.724896707786378
210
0
220
0
230
1
100
AcDbArc
50
-90
51
0
0
ARC
5
123
100
AcDbEntity
8
0
100
AcDbCircle
10
30
20
162.5
30
0
40
12.5
210
0
220
0
230
1
100
AcDbArc
50
143.13010235415598
51
270
0
LINE
5
124
100
AcDbEntity
8
0
100
AcDbLine
10
-20
20
174.36289564689434
30
0
11
-20.000000000000018
21
168.72489670778634
31
0
0
LINE
5
125
100
AcDbEntity
8
0
100
AcDbLine
10
-20
20
265.31065414779766
30
0
11
-20
21
174.36289564689434
31
0
0
LINE
5
126
100
AcDbEntity
8
0
100
AcDbLine
10
17.594595100108183
20
174.36289564689434
30
0
11
17.59459510010819
21
245.30032905845061
31
0
0
LWPOLYLINE
5
127
100
AcDbEntity
8
0
100
AcDbPolyline
90
15
70
1
43
0.0
10
17.59459510010819
20
245.30032905845061
10
100
20
245.30032905845061
10
100
20
300
10
60
20
300
10
60
20
295
10
60
20
290
10
60
20
280
10
50
20
280
10
10.000000000000002
20
280
42
0.45731274835284702
10
-4.816932767313455
20
297.13559663388241
10
-13.965424535121791
20
297.13559663388241
10
-13.965424535121791
20
300
10
-49.964180345566263
20
300
10
-49.964180345566277
20
269.09177252617968
42
-0.23628156320565832
10
-20
20
267.1931125453724
0
LINE
5
128
100
AcDbEntity
8
0
100
AcDbLine
10
-20
20
265.31065414779766
30
0
11
-20
21
260
31
0
0
LINE
5
129
100
AcDbEntity
8
0
100
AcDbLine
10
-20
20
265.31065414779766
30
0
11
-20
21
267.1931125453724
31
0
0
LINE
5
130
100
AcDbEntity
8
0
100
AcDbLine
10
-49.964180345566263
20
269.09177252617962
30
0
11
-49.964180345566263
21
269.93023181012029
31
0
0
LINE
5
131
100
AcDbEntity
8
0
100
AcDbLine
10
60
20
300
30
0
11
60
21
290
31
0
0
LWPOLYLINE
5
132
100
AcDbEntity
8
0
100
AcDbPolyline
90
2
70
1
43
0.0
10
-4.816932767313455
20
297.13559663388241
10
-13.965424535121791
20
297.13559663388241
0
LINE
5
133
100
AcDbEntity
8
0
100
AcDbLine
10
60
20
295
30
0
11
60
21
300
31
0
0
ARC
5
134
100
AcDbEntity
8
0
100
AcDbCircle
10
-34.85369398387288
20
269.93023181012029
30
0
40
15.110486361693383
210
0
220
0
230
1
100
AcDbArc
50
180
51
349.42192984265967
0
ENDSEC
0
SECTION
2
OBJECTS
0
DICTIONARY
5
C
100
AcDbDictionary
3
ACAD_GROUP
350
D
3
ACAD_MLINESTYLE
350
17
0
DICTIONARY
5
D
100
AcDbDictionary
0
DICTIONARY
5
1A
330
C
100
AcDbDictionary
0
DICTIONARY
5
17
100
AcDbDictionary
0
ENDSEC
0
EOF
 